<?xml version="1.0" encoding="UTF-8" standalone="no"?>
<!-- Created with Inkscape (http://www.inkscape.org/) -->

<svg
   width="148.76854mm"
   height="133.67245mm"
   viewBox="0 0 148.76854 133.67245"
   version="1.1"
   id="svg5"
   xml:space="preserve"
   xmlns="http://www.w3.org/2000/svg"
   xmlns:svg="http://www.w3.org/2000/svg"><defs
     id="defs2" /><g
     id="layer1"
     transform="translate(-30.599999,-81.681997)"><g
       id="g4550"
       style="display:inline"
       transform="translate(-6.7707895,31.464678)"><path
         style="display:inline;fill:none;fill-opacity:1;stroke:#7f0000;stroke-width:2;stroke-linecap:square;stroke-linejoin:round;stroke-opacity:1;paint-order:stroke fill markers"
         d="m 81.658644,153.32207 19.759756,-18.4931 15.9598,-14.81981 1.26665,-2.15331 1.01333,-2.15331 0.12666,-10.8932 0.12667,-3.16662 2.65996,-5.573256 5.57327,-6.58659 19.09476,-18.17644 1.32998,-0.37999 1.77331,0.095 1.70998,1.04498 1.01332,1.42499 0.53833,1.61498 -1.13999,2.97662 -4.55994,4.24328 -4.87661,5.06661 -4.9716,4.93994 -4.74994,5.003271 -0.34833,0.98165 0.53833,1.741645 1.07665,0.98165 0.94999,0.47499 1.36165,-0.41166 1.45665,-0.53832 2.56496,-2.279965 5.85826,-5.509931 3.86329,-3.70496 2.59663,-2.65997 3.60996,-3.45162 1.26665,-0.82332 0.98165,-0.34833 0.94999,0.12666 1.07666,0.53833 1.32998,0.79166 0.60166,0.75999 0.63332,1.20332 0.22167,1.39331 -0.66499,1.17166 -4.81328,4.65494 -13.29983,13.268156 -0.47499,0.82333 -0.095,0.91832 -0.0317,1.17165 0.12667,1.32998 0.72832,0.79166 1.26665,0.47499 1.83664,-0.53832 1.42498,-1.32999 18.14478,-17.131446 0.85499,-0.79165 1.29832,-0.095 0.56999,0.34832 1.07665,0.665 0.44333,0.88665 0.0633,2.84997 -0.37999,1.709981 -4.40162,5.066595 -10.98819,12.15985 -7.06158,6.80824 -1.61498,1.17166 -1.74164,0.94998 -1.23499,0.38 -2.84996,0.66499 -3.79996,0.19 -9.27822,0.47499 -1.99497,0.60166 -2.6283,1.70998 -3.57829,3.19829 -8.51823,8.86656 -10.76653,12.28651 -9.341556,10.67154 7.409914,6.83991 10.069882,9.21489 2.62829,2.50163 14.59816,-13.86982 6.14325,-5.88993 -16.94145,-19.60142 -0.285,-0.94999 0.82332,-1.36165 5.3516,-5.79493 1.20332,0.0317 19.0631,19.06309 19.85475,-18.80976 7.5999,-8.23323 5.76327,-7.66324 2.50163,-4.02162 1.07666,-2.27997 1.51998,-3.60996 1.23498,-3.13496 1.51998,-5.22493 0.69666,-5.129926 0.15833,-3.70496 -0.31666,-7.09324 -1.42498,-4.90828 -2.05831,-5.22493 -4.05329,-7.21991 -3.73662,-4.05328 -3.92661,-2.8183 -2.21664,-1.55165 -2.75497,-1.55165 -3.16662,-1.36164 -2.75497,-0.88666 -3.07163,-0.98165 -2.56497,-0.50667 -3.51495,-0.41166 -5.57327,0.12667 -3.54662,0.19 -3.35662,0.85499 -4.43328,1.70997 -3.48329,1.77332 -4.46495,2.78663 -2.72329,2.3433 -3.45163,3.13496 -3.29329,4.08495 -2.40664,2.6283 -3.00829,-3.41996 -4.93994,-5.60492 -3.10329,-2.84997 -3.388306,-2.40664 -3.86328,-2.02664 -3.26163,-1.42498 -5.63659,-1.51998 -3.26163,-0.50666 -3.356621,-0.285 -4.93994,0.0633 -1.61498,0.22166 -1.58331,0.475 -1.48832,0.34833 -2.6283,0.72832 c 0,0 -2.6283,0.75999 -3.67329,1.29832 -1.044985,0.53833 -3.958283,2.18497 -3.958283,2.18497 l -5.129937,3.57829 -2.27997,2.3433 -1.899976,2.02665 -2.723301,3.95828 -1.583314,1.99497 -0.918321,2.21664 -1.298316,3.1983 -0.823325,1.89997 -0.823322,3.13496 -0.75999,3.83162 -0.411662,1.96331 v 7.15658 l -0.06333,2.026641 0.791657,3.419955 1.773311,5.2566 0.854991,2.08998 1.298315,3.13496 2.026643,3.86328 2.754966,4.40161 1.488313,2.46997 2.754966,3.35663 2.818299,3.22996 2.406637,2.6283 4.971599,5.22493 6.14326,6.14326 3.41996,3.38829 4.55994,4.11662 z"
         id="path1337" /><path
         style="display:inline;fill:none;fill-opacity:1;stroke:#7f0000;stroke-width:2;stroke-linecap:square;stroke-linejoin:round;stroke-opacity:1;paint-order:stroke fill markers"
         d="m 104.18204,126.72842 6.14325,-6.14326 -8.29656,-10.3232 -0.31666,-1.39332 1.26665,-3.79995 0.25333,-7.599905 -0.56999,-3.926618 -2.59664,-6.649918 -4.559946,-5.636596 -5.953258,-5.003271 -5.889926,-3.673287 -5.509932,-1.963309 -3.926618,-0.253331 -3.989951,0.506661 -2.596634,1.519981 -3.166626,2.849965 -2.659967,3.609954 -1.646648,5.003271 -0.253328,6.01659 1.01332,7.663238 3.356626,6.839915 3.673287,5.50993 5.129935,4.11662 4.813273,2.65996 2.659968,1.07666 3.356623,0.56999 6.459921,-0.31666 h 2.343303 l 1.519981,0.63332 3.863285,2.7233 5.351602,5.3516 0.41167,0.41166 z"
         id="path3800" /><path
         style="display:inline;fill:none;fill-opacity:1;stroke:#7f0000;stroke-width:3.61701;stroke-linecap:square;stroke-linejoin:bevel;stroke-dasharray:none;stroke-opacity:1;paint-order:stroke fill markers"
         d="m 418.89241,686.43589 c -2.76469,-2.65262 -13.75164,-12.81988 -24.41544,-22.59393 -10.6638,-9.77403 -26.39022,-24.21912 -34.9476,-32.10019 -8.55737,-7.88107 -15.83043,-14.5737 -16.16234,-14.87253 -0.47017,-0.42329 7.81321,-10.16265 37.49534,-44.08596 64.35783,-73.5537 87.15896,-96.16573 101.32189,-100.48161 5.29173,-1.61255 10.3025,-2.09525 27.66117,-2.66468 8.0272,-0.26333 16.21356,-0.70688 18.1919,-0.98567 1.97834,-0.2788 5.90679,-0.7007 8.72989,-0.93756 2.8231,-0.23686 5.73424,-0.74162 6.46922,-1.12169 0.73497,-0.38007 2.41063,-0.84868 3.72367,-1.04135 1.31306,-0.19267 3.24909,-0.78899 4.30231,-1.32516 1.05321,-0.53616 2.23808,-1.11975 2.63303,-1.29684 7.34436,-3.29327 28.3315,-23.48659 54.17023,-52.12127 22.56445,-25.0061 37.06296,-41.53001 38.06189,-43.37896 0.82452,-1.52616 1.51404,-12.01294 0.94018,-14.29937 -0.40807,-1.62599 -4.4088,-4.02159 -6.13512,-3.67365 -0.86497,0.17433 -13.23326,11.53386 -37.58064,34.51558 -19.96024,18.84065 -37.20454,35.07469 -38.32065,36.07565 -1.56766,1.40591 -3.04579,2.11748 -6.49749,3.12785 l -4.46817,1.30792 -3.65989,-1.39328 c -3.05213,-1.16192 -4.00037,-1.79989 -5.71024,-3.84181 l -2.05035,-2.44852 v -7.69012 c 0,-7.54958 0.0242,-7.73053 1.32508,-9.9011 1.09685,-1.83015 30.35762,-31.30227 64.34702,-64.81181 4.00779,-3.95121 6.4348,-6.72006 6.64718,-7.58343 0.43398,-1.76422 -0.36391,-4.35822 -2.18727,-7.111 -1.20555,-1.82004 -2.23533,-2.59518 -5.93999,-4.47115 -3.91174,-1.98084 -4.65761,-2.20805 -5.86583,-1.78686 -3.38199,1.17896 -7.50695,4.72332 -20.50619,17.61988 -14.29201,14.17913 -41.54411,40.12106 -50.6008,48.16813 l -5.12105,4.55016 -6.01495,1.99657 c -3.30822,1.09811 -6.35935,1.99656 -6.78029,1.99656 -1.52756,0 -6.30297,-2.97931 -8.67194,-5.4103 -2.09536,-2.15022 -2.59785,-3.06251 -3.69353,-6.70572 l -1.2682,-4.21691 1.0001,-2.67301 c 0.55005,-1.47015 1.43196,-3.22203 1.95979,-3.89306 1.85212,-2.35459 23.38259,-24.7733 37.42131,-38.96514 3.35713,-3.39373 6.10386,-6.37363 6.10386,-6.62201 0,-0.24836 0.19389,-0.45157 0.43087,-0.45157 0.56102,0 3.87774,-3.31672 3.87774,-3.87775 0,-0.23697 0.32315,-0.43086 0.7181,-0.43086 0.39496,0 0.7181,-0.18796 0.7181,-0.41769 0,-0.61845 7.00567,-7.72079 7.61569,-7.72079 0.28754,0 0.5228,-0.22611 0.5228,-0.50247 0,-0.68905 3.07811,-3.80614 3.75855,-3.80614 0.30253,0 0.55005,-0.34331 0.55005,-0.76292 0,-0.4196 0.43086,-0.87559 0.95747,-1.0133 0.52661,-0.13771 0.95747,-0.56858 0.95747,-0.95747 0,-0.38889 0.43086,-0.81976 0.95747,-0.95747 0.52661,-0.13771 0.95747,-0.46048 0.95747,-0.71726 0,-0.25678 1.40029,-1.81975 3.11177,-3.47326 1.71147,-1.65352 3.11177,-3.2315 3.11177,-3.50663 0,-0.27514 0.19427,-0.57206 0.43171,-0.65983 0.23745,-0.0878 0.97746,-1.50872 1.64448,-3.15767 1.17784,-2.91177 1.19073,-3.0627 0.44787,-5.24288 -1.77321,-5.20407 -5.68429,-8.61742 -10.66254,-9.3056 -5.11635,-0.70727 -3.13753,-2.34094 -42.08982,34.74851 -35.13715,33.45677 -35.86685,34.189 -45.92255,46.08134 l -10.21807,12.08437 -4.79655,9.95023 -4.79654,9.95022 -0.45483,26.56975 -0.45483,26.56975 -2.81343,5.74481 c -5.63306,11.50229 -3.45107,9.12607 -37.12396,40.42844 -16.83846,15.65304 -47.83854,44.57457 -68.88908,64.27006 -21.05054,19.69549 -38.42204,35.80998 -38.60331,35.80998 -0.52312,0 -17.95574,-15.12117 -28.4445,-24.67295 -10.98505,-10.00373 -50.53922,-49.68181 -62.97748,-63.17477 -16.92257,-18.35751 -28.67451,-32.38103 -32.56234,-38.85642 -1.39672,-2.32631 -5.15193,-8.43055 -8.34492,-13.56497 -3.19299,-5.13443 -7.44326,-12.4769 -9.44506,-16.31662 -7.1854,-13.78255 -16.50489,-38.46331 -19.9602,-52.86047 l -1.83834,-7.65975 0.22793,-18.43127 0.22793,-18.43126 2.32305,-11.48962 c 3.13985,-15.52946 4.58987,-20.71988 8.22507,-29.44216 1.70094,-4.08121 4.34447,-10.47382 5.87452,-14.2058 2.21356,-5.39916 3.3866,-7.55089 5.74173,-10.53215 2.812,-3.5596 4.95146,-6.56214 10.8294,-15.19814 1.4194,-2.08542 6.19961,-7.62565 10.62268,-12.31162 7.73044,-8.18992 8.42584,-8.78862 17.95253,-15.45609 5.45082,-3.81488 13.78833,-9.09631 18.5278,-11.73651 7.29857,-4.06579 9.8626,-5.21162 16.7557,-7.48785 4.47616,-1.47812 11.80079,-3.6236 16.27696,-4.76773 4.47616,-1.14413 8.89249,-2.31008 9.81405,-2.591 0.92156,-0.28091 5.98418,-0.84435 11.25025,-1.25209 9.82423,-0.76066 21.74364,-0.60404 25.13355,0.33024 0.92156,0.25399 4.21921,0.65154 7.3281,0.88345 3.10889,0.2319 5.93679,0.65756 6.28422,0.9459 0.34743,0.28834 2.54326,0.76783 4.87962,1.06553 2.33636,0.29769 4.99875,0.93964 5.91641,1.42655 0.91767,0.48691 2.5582,0.88529 3.64563,0.88529 1.25225,0 2.42343,0.35104 3.19437,0.95746 0.66947,0.52661 1.93725,0.95889 2.81729,0.96063 0.88003,0.002 2.24635,0.43117 3.03626,0.95431 0.78991,0.52314 1.90553,0.95258 2.47916,0.95432 0.57362,0.002 1.33358,0.29378 1.68879,0.64899 0.35522,0.35521 1.40348,0.89588 2.32947,1.20149 1.74986,0.5775 10.4903,4.93273 17.88267,8.91066 9.8442,5.29728 23.75975,16.59258 32.81334,26.63469 2.22966,2.4731 4.86868,5.27133 5.86449,6.21828 0.99581,0.94694 1.81056,1.97023 1.81056,2.27398 0,0.30376 0.17782,0.55228 0.39514,0.55228 0.21733,0 1.56377,1.4535 2.99209,3.23001 1.42832,1.77651 3.02781,3.675 3.55441,4.21887 0.52661,0.54387 2.52244,2.83659 4.43517,5.09492 1.91273,2.25833 3.78141,4.35812 4.15262,4.66621 0.55026,0.45667 1.54093,-0.48421 5.36298,-5.09348 2.57843,-3.10949 4.93157,-5.86905 5.2292,-6.13236 0.29764,-0.2633 2.27631,-2.63304 4.39704,-5.26607 4.71741,-5.85699 5.56042,-6.67516 21.66338,-21.02498 4.42601,-3.94415 7.58297,-6.20944 15.43815,-11.07774 1.25013,-0.77477 3.40443,-2.13727 4.78734,-3.02777 4.59461,-2.95862 16.3941,-8.6305 24.58711,-11.81875 12.14548,-4.72631 18.58966,-6.2988 30.34866,-7.4056 10.45628,-0.98418 28.67605,-1.21731 33.5114,-0.42879 1.44817,0.23616 5.2182,0.81042 8.37784,1.27613 3.15965,0.4657 5.98413,1.0025 6.27663,1.19288 0.2925,0.19038 2.28783,0.65087 4.43406,1.02332 2.14624,0.37245 4.23674,0.95479 4.64557,1.29408 0.40882,0.33929 1.93348,0.77841 3.38814,0.97581 1.45465,0.1974 3.00257,0.6697 3.43983,1.04955 0.43726,0.37985 1.72732,0.80843 2.86679,0.95239 1.13948,0.14396 2.44903,0.60314 2.91011,1.02041 0.46107,0.41727 1.29467,0.75868 1.85244,0.75868 0.55777,0 2.02705,0.53857 3.26506,1.19683 1.23802,0.65826 2.62334,1.19684 3.07849,1.19684 0.45515,0 1.09573,0.32314 1.42352,0.7181 0.32778,0.39495 0.86522,0.7181 1.19431,0.7181 0.63473,0 9.86373,4.60381 12.68898,6.32978 2.91635,1.78165 10.65318,6.96565 13.88329,9.30243 12.76794,9.23675 13.16366,9.57417 20.56987,17.53999 7.22031,7.7659 7.65194,8.34802 12.72107,17.1562 9.25211,16.07662 9.68091,16.89626 12.36503,23.63603 1.25835,3.15965 2.6879,6.71425 3.17683,7.89912 1.97627,4.78956 3.46384,9.28803 5.93669,17.95253 l 2.59603,9.09595 0.58224,13.40455 c 1.48551,34.19733 -2.09978,53.60213 -15.9656,86.41153 -7.64509,18.08991 -12.21691,25.659 -28.58718,47.32864 -10.1415,13.42452 -13.06317,16.89324 -25.70343,30.51606 -12.37041,13.33202 -19.33927,20.179 -52.56003,51.64074 -21.06431,19.94896 -38.58991,36.38429 -38.94579,36.52296 -0.40093,0.15622 -14.6053,-13.70524 -37.34243,-36.44093 -20.18245,-20.18117 -36.9308,-36.69304 -37.21856,-36.69304 -0.71488,0 -18.83685,19.73299 -20.17877,21.97264 l -1.07617,1.79613 1.31554,1.7008 c 1.21864,1.57551 10.85525,12.75559 34.82006,40.39704 24.96042,28.78981 29.6884,34.35289 29.6884,34.93223 0,0.66957 -12.56434,12.80282 -55.49709,53.59293 -14.96528,14.21841 -27.45075,25.89799 -27.7455,25.95467 -0.29474,0.0567 -2.79792,-2.06732 -5.56261,-4.71993 z m -16.64776,-221.46531 9.43426,-9.455 -14.62256,-18.1919 c -8.04241,-10.00554 -14.75402,-18.39856 -14.91469,-18.65114 -0.16067,-0.25259 -0.64247,-1.97603 -1.07066,-3.82988 l -0.77854,-3.37063 2.48174,-7.45657 2.48173,-7.45657 0.46488,-13.8471 c 0.44388,-13.2217 0.41594,-14.18224 -0.61876,-21.26748 -0.81449,-5.57738 -1.49235,-8.43106 -2.72922,-11.48962 -0.90507,-2.23808 -2.99186,-7.51613 -4.6373,-11.72899 -1.64544,-4.21286 -3.29123,-7.83202 -3.65729,-8.04258 -0.36606,-0.21056 -0.66557,-0.59596 -0.66557,-0.85645 0,-0.26049 -3.47042,-4.7549 -7.71204,-9.98758 -7.53156,-9.29134 -7.96566,-9.72607 -18.55095,-18.57812 -11.16631,-9.33795 -12.24794,-10.11774 -25.20094,-18.16844 -7.0138,-4.35931 -8.42681,-5.02969 -16.7557,-7.94957 -10.65864,-3.73663 -11.61656,-3.9571 -19.04902,-4.38413 -4.15597,-0.23878 -7.37526,-0.10631 -12.20772,0.50232 -6.44266,0.81143 -6.64945,0.87483 -11.25391,3.45044 -7.03235,3.9337 -14.58647,10.95097 -20.75612,19.28103 l -4.86121,6.56345 -2.87746,9.0314 -2.87745,9.0314 -0.45008,10.29278 -0.45006,10.29279 1.84519,14.36202 1.8452,14.36203 6.177,12.50492 c 5.04234,10.20788 7.4136,14.35677 12.90896,22.58617 l 6.73197,10.08124 9.2478,7.45716 c 7.8337,6.31688 10.52657,8.16597 17.61065,12.09253 11.57266,6.41449 16.96618,8.60236 24.51554,9.94464 5.9882,1.0647 6.31517,1.07294 17.95254,0.45243 19.13303,-1.02019 21.06075,-0.95614 25.38331,0.84334 2.30389,0.95912 6.572,3.59611 11.57602,7.15209 6.76256,4.80565 9.26162,6.97281 17.0178,14.75769 5.00017,5.01869 9.20309,9.12488 9.33981,9.12488 0.13672,0 4.494,-4.25475 9.68285,-9.455 z"
         id="path4621"
         transform="scale(0.26458333)" /><path
         style="fill:#f54237;fill-opacity:1;stroke:#7f0000;stroke-width:3.61878;stroke-linecap:square;stroke-linejoin:round;stroke-opacity:1;paint-order:stroke fill markers"
         d="m 422.28633,692.04182 c -0.86869,-0.64089 -4.08814,-3.5132 -7.15434,-6.38282 -3.06619,-2.86968 -20.76274,-19.16718 -39.32565,-36.21669 -18.56292,-17.04952 -33.94893,-31.5052 -34.19114,-32.12373 -0.55008,-1.40476 0.80199,-3.25872 11.16562,-15.31034 38.3442,-44.58955 72.78417,-82.95852 91.47207,-101.90744 13.11724,-13.30044 20.53616,-19.94984 27.35892,-24.52116 9.34148,-6.25887 13.88154,-7.15318 41.1125,-8.0985 19.73725,-0.68517 32.10817,-2.52908 39.15154,-5.83563 9.61102,-4.51195 31.09954,-25.69853 68.12578,-67.16854 15.8591,-17.76245 23.84645,-27.09556 24.37234,-28.47874 0.23319,-0.6134 0.57491,-3.49989 0.75932,-6.41444 0.36546,-5.77558 0.23051,-6.22141 -2.27567,-7.5174 -1.34103,-0.69347 -1.37789,-0.6715 -6.25839,3.73053 -6.80224,6.1353 -20.59224,19.02232 -47.51681,44.40529 -12.63859,11.91495 -23.62554,22.0748 -24.41545,22.57744 -0.78991,0.50265 -3.47226,1.57014 -5.96077,2.37221 l -4.52458,1.45832 -3.44048,-1.25482 c -4.01824,-1.46553 -5.54343,-2.50953 -8.26042,-5.65428 l -1.98982,-2.3031 0.0285,-6.55348 c 0.0358,-8.22844 0.41747,-10.54043 2.16511,-13.11614 0.76671,-1.13 16.63219,-17.29747 35.25663,-35.92771 18.62443,-18.63024 34.20591,-34.39713 34.62552,-35.03753 0.70914,-1.08227 0.69127,-1.32637 -0.25349,-3.46214 -0.55903,-1.26378 -1.49061,-2.80698 -2.07019,-3.42934 -1.23715,-1.3285 -7.08951,-4.38581 -8.39538,-4.38581 -1.04124,0 -3.78221,1.7653 -6.54167,4.21311 -1.05321,0.93427 -10.74758,10.23851 -21.54304,20.67608 -21.44103,20.73024 -33.23418,31.91471 -42.20915,40.03056 l -5.82535,5.26773 -6.38237,2.01199 c -3.5103,1.1066 -6.89079,2.01027 -7.51219,2.00816 -1.86565,-0.006 -6.80652,-2.94295 -9.67209,-5.74864 -2.75999,-2.70232 -4.16214,-5.48859 -5.34851,-10.62822 -0.47846,-2.07279 -0.40172,-2.58678 0.85059,-5.69759 1.24361,-3.08919 2.17259,-4.26276 9.62281,-12.15641 9.96973,-10.56313 28.19503,-29.31734 40.33156,-41.502 4.90065,-4.92009 9.07003,-9.12098 9.26529,-9.33532 0.19527,-0.21434 3.54323,-3.62116 7.43993,-7.57072 6.8819,-6.97525 9.67885,-10.81142 9.67885,-13.2751 0,-1.33907 -2.13631,-5.2361 -3.66555,-6.68665 -2.85669,-2.7097 -7.28103,-3.54891 -9.97837,-1.89268 -2.35185,1.44408 -9.81734,8.29187 -30.54848,28.0209 -40.83688,38.86286 -40.81266,38.83853 -53.62431,53.87842 l -7.5753,8.89284 -4.73157,9.7265 -4.73157,9.72651 -0.51697,26.8187 -0.51697,26.8187 -3.27776,6.54087 c -4.02848,8.03896 -6.05731,10.76014 -13.28374,17.81696 -4.7043,4.5939 -105.18321,98.39436 -123.81624,115.58665 -7.13959,6.58755 -8.71142,7.68752 -10.08155,7.05508 -1.12976,-0.52148 -8.77727,-7.02143 -20.89213,-17.75713 -19.79905,-17.54512 -62.02561,-60.04726 -82.1134,-82.6493 -6.4429,-7.2493 -13.34429,-15.49235 -17.03461,-20.3462 -4.98577,-6.55774 -17.84186,-27.63308 -22.92442,-37.58063 -7.36637,-14.41742 -15.5955,-36.41434 -19.70057,-52.66076 l -1.93543,-7.65975 0.32994,-18.67063 0.32994,-18.67064 2.13947,-10.53215 c 3.74569,-18.43932 4.79642,-21.92953 11.36024,-37.73529 5.33455,-12.8457 5.9072,-13.95158 10.33161,-19.95218 2.03848,-2.76469 5.27371,-7.28873 7.1894,-10.05342 6.52758,-9.42053 18.46464,-22.1714 25.88819,-27.65315 10.67742,-7.88449 25.52994,-16.95734 33.40372,-20.40506 8.61203,-3.77099 31.35547,-10.09696 39.88189,-11.09294 8.43445,-0.98524 21.45637,-1.35162 26.73732,-0.75227 13.87154,1.57433 17.02351,1.98878 18.37654,2.41634 0.82001,0.25913 2.89123,0.70383 4.6027,0.98824 1.71148,0.2844 4.51207,0.92188 6.22354,1.41661 1.71148,0.49474 3.9735,1.1106 5.02671,1.36858 1.05322,0.25798 2.66895,0.73379 3.59051,1.05736 5.81604,2.04204 7.08934,2.51584 8.37785,3.11741 0.78991,0.36879 3.72124,1.72762 6.51407,3.01963 18.0867,8.3672 30.52475,17.1177 44.65106,31.41324 3.91687,3.96379 8.11776,8.42301 9.33532,9.90936 1.21755,1.48636 5.19578,6.14558 8.8405,10.35385 l 6.62677,7.65138 1.75701,-1.976 c 3.0978,-3.4839 7.40066,-8.5375 11.87281,-13.94435 2.65526,-3.21021 7.78963,-8.37496 13.15163,-13.22943 10.98053,-9.94122 12.15911,-10.92168 17.17374,-14.28693 15.2139,-10.20983 28.58497,-16.90538 44.04355,-22.05475 13.12796,-4.37303 21.09677,-5.38794 42.60734,-5.42649 14.88671,-0.0267 15.8484,0.0269 22.26114,1.24043 10.68879,2.02269 24.16876,5.59677 28.96342,7.67935 1.10392,0.47949 2.01485,0.83647 7.42038,2.9079 10.18334,3.90232 30.72372,16.75739 42.36797,26.51575 4.2763,3.58371 14.37706,14.49855 17.18417,18.56911 2.64108,3.82984 10.94812,18.22423 13.83039,23.96523 4.42906,8.8219 9.20438,21.63079 13.0647,35.04339 l 2.37811,8.2628 0.55716,14.17105 c 1.10487,28.10221 -1.09415,45.08366 -8.72819,67.40186 -6.48843,18.96887 -14.34824,35.64932 -22.63781,48.04303 -10.82552,16.18514 -23.51092,32.32273 -36.63872,46.60948 -14.35461,15.62187 -26.91232,27.90812 -70.92677,69.39356 -20.9098,19.70834 -23.97738,22.46289 -25.01559,22.46289 -1.1062,0 -6.7883,-5.48695 -43.81915,-42.31422 l -30.29664,-30.13008 -1.71495,1.63361 c -2.48081,2.36314 -12.20072,12.90832 -15.01348,16.28819 l -2.40316,2.8877 1.00784,1.28227 c 0.55431,0.70526 12.47277,14.53125 26.48549,30.72443 39.32204,45.44083 38.24701,44.13004 37.75032,46.02938 -0.26786,1.02429 -9.77121,10.35252 -36.27071,35.60232 -40.74569,38.82414 -47.66584,45.23286 -48.84268,45.23286 -0.28281,0 -1.22494,-0.52435 -2.09363,-1.16528 z m -21.16366,-228.70254 7.80612,-7.97453 -14.38074,-17.9681 c -10.10671,-12.62788 -14.52445,-18.5102 -14.86427,-19.79206 -1.62351,-6.12423 -1.66287,-5.63011 1.10791,-13.90812 l 2.56636,-7.66728 0.34191,-13.82162 c 0.3478,-14.05911 0.15006,-17.43474 -1.4934,-25.49542 -0.79716,-3.90983 -7.10295,-20.35588 -9.36884,-24.43476 -1.59585,-2.87269 -11.52276,-15.43804 -15.6798,-19.84725 -2.77189,-2.94003 -17.54884,-15.50611 -22.6516,-19.26254 -3.29597,-2.42636 -17.7215,-11.47989 -20.7089,-12.99702 -3.07734,-1.56278 -16.90995,-6.36209 -20.51981,-7.11946 -4.22972,-0.88742 -15.3902,-0.88642 -21.1962,0.002 -5.36146,0.8203 -9.54591,3.01829 -16.13331,8.47442 -4.86917,4.03296 -8.51187,8.0038 -13.65401,14.88394 -3.37259,4.5125 -3.52229,4.83486 -6.26855,13.49899 l -2.81345,8.87608 -0.32074,10.6771 c -0.314,10.45299 -0.2841,10.95695 1.42453,24.01096 l 1.74527,13.33387 5.74585,11.48404 c 5.8457,11.68361 8.94931,17.04154 15.76022,27.20772 3.62948,5.41747 4.16144,5.97344 10.88018,11.37125 9.21678,7.40472 13.3894,10.2729 20.94742,14.39885 8.02127,4.37884 13.08172,6.54929 18.82883,8.07578 5.41481,1.43823 11.05596,1.60698 30.04129,0.89868 11.03737,-0.41177 11.67104,-0.38693 14.86381,0.58285 7.0638,2.14556 18.83484,10.7195 30.79113,22.42803 4.88484,4.78361 8.99743,8.55364 9.1391,8.37785 0.14167,-0.17579 3.77033,-3.90816 8.06369,-8.29415 z"
         id="path4764"
         transform="scale(0.26458333)" /></g></g></svg>
